When a group of archaeologists dig up a human skeleton near the historical monument of STONEHENGE, an ancient piece of machinery hidden beneath the bedrock is discovered. Not knowing what it could be the workers accidentally trigger the mechanism and start a chain of events that may very well end the world as we know it.

Genre: Sci-Fi
Language: English  http://www.imdb.com/title/tt1488598/
Source:DVD

General
Complete name :The.Stonehenge.Apocalypse.2010.DvDRip.H264.Feel-Free
Format : MPEG-4
Format profile : Base Media
Codec ID : isom
File size : 652 MiB
Duration : 1h 27mn
Overall bit rate : 1 048 Kbps
Video #2
Codec ID : avc1
Codec ID/Info : Advanced Video Coding
Duration : 1h 27mn
Bit rate mode : Variable
Bit rate : 882 Kbps
Width : 720 pixels
Height : 384 pixels
Display aspect ratio : 1.875
Frame rate mode : Constant
Frame rate : 25.000 fps
Resolution : 24 bits
Colorimetry : 4:2:0
Scan type : Progressive
Bits/(Pixel*Frame) : 0.128
Stream size : 549 MiB (84%)
Audio #1
ID : 1
Format : AAC
Format/Info : Advanced Audio Codec
Format version : Version 4
Format profile : LC
Format settings, SBR : No
Codec ID : 40
Duration : 1h 27mn
Bit rate mode : Constant
Bit rate : 160 Kbps
Channel(s) : 2 channels
Channel positions : L R
Sampling rate : 48.0 KHz
Resolution : 16 bits
Stream size : 99.6 MiB (15%)
